<?xml version="1.0" encoding="utf-8"?>
<!-- Generator: Adobe Illustrator 26.0.3, SVG Export Plug-In . SVG Version: 6.00 Build 0)  -->
<svg version="1.1" id="Calque_1" xmlns="http://www.w3.org/2000/svg" xmlns:xlink="http://www.w3.org/1999/xlink" x="0px" y="0px"
	 viewBox="0 0 177.6 227.6" style="enable-background:new 0 0 177.6 227.6;" xml:space="preserve">
<style type="text/css">
	.st0{fill:#C6C6C6;}
	.st1{clip-path:url(#SVGID_00000096761664649376684250000010582178727951297414_);}
	.st2{fill:#B2B2B2;}
	.st3{clip-path:url(#SVGID_00000173138641070713317680000015734634785411313807_);}
	.st4{fill:#E8E8E8;}
	.st5{clip-path:url(#SVGID_00000150824314807813557300000010222291866652768159_);}
	.st6{fill:#F2F2F2;}
	.st7{fill:#FFFFFF;}
	.st8{fill:#7F1BBF;}
	.st9{fill:url(#purple-2_00000138542115137097404820000000390941338400610229_);}
	.st10{fill:#D8D8D8;}
	.st11{fill:#B5B5B5;}
	.st12{fill:#969696;}
	.st13{clip-path:url(#SVGID_00000132050222734323909590000005620679392747474360_);}
	.st14{fill:#FFCB39;}
	.st15{fill:#DEDFE0;}
	.st16{fill:url(#SVGID_00000163754633141130932810000014422162212805408694_);}
	.st17{clip-path:url(#SVGID_00000179646218276651032080000015485322907117767591_);}
	.st18{fill:#5208BC;}
	.st19{fill:#D3D3D3;}
	.st20{fill:url(#SVGID_00000011014015000351193400000005717353920710154150_);}
	.st21{fill:#FCFCFC;}
	.st22{clip-path:url(#SVGID_00000094598604563075469290000015286679807529208970_);}
	.st23{fill:#C4C4C4;}
	.st24{fill:#ADADAD;}
	.st25{clip-path:url(#SVGID_00000152973353741223276520000009292774945616996232_);}
</style>
<g>
	<g>
		<g>
			
				<rect x="3.5" y="68.6" transform="matrix(0.8558 -0.5173 0.5173 0.8558 -34.7523 13.3006)" class="st0" width="5.9" height="0.7"/>
			<path id="ear-3_00000040538657249408788710000011127481457109665982_" class="st0" d="M10.2,56.3L10.2,56.3L10.2,56.3L19.6,72
				l0,0l0,0c-3.5,2.1-8,1-10.1-2.5l-1.9-3.1C5.6,62.9,6.7,58.4,10.2,56.3L10.2,56.3z"/>
			<g>
				<defs>
					<path id="SVGID_1_" d="M10.2,56.3L10.2,56.3L10.2,56.3L19.6,72l0,0l0,0c-3.5,2.1-8,1-10.1-2.5l-1.9-3.1
						C5.6,62.9,6.7,58.4,10.2,56.3L10.2,56.3z"/>
				</defs>
				<clipPath id="SVGID_00000050638497574643125160000009702109753679313338_">
					<use xlink:href="#SVGID_1_"  style="overflow:visible;"/>
				</clipPath>
				<g style="clip-path:url(#SVGID_00000050638497574643125160000009702109753679313338_);">
					
						<ellipse id="circle_00000155824654034325532670000001639379289299887237_" transform="matrix(0.9439 -0.3302 0.3302 0.9439 -14.2444 15.3418)" class="st2" cx="38" cy="49.6" rx="29.5" ry="31.4"/>
					
						<ellipse transform="matrix(0.8558 -0.5173 0.5173 0.8558 -33.7929 14.2382)" class="st2" cx="8.6" cy="67.7" rx="0.9" ry="1.8"/>
				</g>
			</g>
			
				<rect x="84.3" y="19.8" transform="matrix(0.8558 -0.5173 0.5173 0.8558 2.1564 48.0512)" class="st0" width="5.9" height="0.7"/>
			<path id="ear-4_00000127013697728447122180000005317058536417292455_" class="st0" d="M83.6,33L83.6,33L83.6,33l-9.4-15.6l0,0
				l0,0c3.5-2.1,7.9-1,10,2.5c0,0,0,0,0,0l1.9,3.1C88.2,26.5,87.1,31,83.6,33C83.6,33,83.6,33,83.6,33z"/>
			<g>
				<defs>
					<path id="SVGID_00000050635633358574666750000012180431847475294902_" d="M83.6,33L83.6,33L83.6,33l-9.4-15.6l0,0l0,0
						c3.5-2.1,7.9-1,10,2.5c0,0,0,0,0,0l1.9,3.1C88.2,26.5,87.1,31,83.6,33C83.6,33,83.6,33,83.6,33z"/>
				</defs>
				<clipPath id="SVGID_00000083060310484471216880000000923842123479588252_">
					<use xlink:href="#SVGID_00000050635633358574666750000012180431847475294902_"  style="overflow:visible;"/>
				</clipPath>
				<g style="clip-path:url(#SVGID_00000083060310484471216880000000923842123479588252_);">
					
						<ellipse id="circle-2_00000090278008217289997640000014850796534258098358_" transform="matrix(0.8558 -0.5173 0.5173 0.8558 -12.4498 34.741)" class="st2" cx="56.1" cy="39.7" rx="29.2" ry="31"/>
					
						<ellipse transform="matrix(0.8558 -0.5173 0.5173 0.8558 1.2005 47.1202)" class="st2" cx="85.1" cy="21.4" rx="0.9" ry="1.8"/>
				</g>
			</g>
			<circle id="_Ellipse_2_00000052066612794673021000000011414873693102009275_" class="st4" cx="47.2" cy="45.2" r="38.9"/>
			<g>
				<defs>
					<circle id="SVGID_00000034076006617735519000000003157459475198950068_" cx="47.2" cy="45.2" r="38.9"/>
				</defs>
				<clipPath id="SVGID_00000077285573771954229300000017353123117865081530_">
					<use xlink:href="#SVGID_00000034076006617735519000000003157459475198950068_"  style="overflow:visible;"/>
				</clipPath>
				<g style="clip-path:url(#SVGID_00000077285573771954229300000017353123117865081530_);">
					
						<ellipse id="_Ellipse_3_00000173855969627568851240000004788058186722800295_" transform="matrix(0.8573 -0.5148 0.5148 0.8573 -15.6352 31.609)" class="st6" cx="49.2" cy="44" rx="36.8" ry="38.9"/>
					
						<ellipse id="_Ellipse_4_00000003102324164117851030000010053961153469257638_" transform="matrix(0.8558 -0.5173 0.5173 0.8558 -15.5144 31.6456)" class="st7" cx="49" cy="43.7" rx="36.5" ry="38.8"/>
					
						<ellipse id="_Ellipse_5_00000150092005829768317770000012160407209133831811_" transform="matrix(0.8558 -0.5173 0.5173 0.8558 -16.1279 31.0661)" class="st6" cx="47.7" cy="44.5" rx="35" ry="38.8"/>
				</g>
			</g>
			<path id="purple_00000004517947879074740270000014414032942533560203_" class="st8" d="M71.6,33.3c8,13.3,4.2,29-9.1,37.1
				c-13.3,8-31,5.3-39-8s-2.2-30.2,11.1-38.2S63.6,20,71.6,33.3z"/>
			
				<linearGradient id="purple-2_00000000922819548973081160000013495001479748553661_" gradientUnits="userSpaceOnUse" x1="-387.7911" y1="-303.9342" x2="-337.8079" y2="-303.9342" gradientTransform="matrix(0.8558 -0.5173 -0.5173 -0.8558 203.0885 -402.3077)">
				<stop  offset="0" style="stop-color:#9E23CC"/>
				<stop  offset="1" style="stop-color:#4619BF"/>
			</linearGradient>
			
				<path id="purple-2_00000078010685793761028000000009136461524320790939_" style="fill:url(#purple-2_00000000922819548973081160000013495001479748553661_);" d="
				M71.2,32.5c7.8,12.9,4.8,27.6-7,34.8c-12.4,7.4-28.4,3.4-35.8-9C21,46,24.9,30.1,37.1,22.6C49,15.5,63.4,19.7,71.2,32.5z"/>
			<g>
				<defs>
					<circle id="SVGID_00000047763496500609852080000007677237751348653440_" cx="53" cy="57" r="40.2"/>
				</defs>
				<clipPath id="SVGID_00000024710695255117795880000000448500196541986463_">
					<use xlink:href="#SVGID_00000047763496500609852080000007677237751348653440_"  style="overflow:visible;"/>
				</clipPath>
				<g style="clip-path:url(#SVGID_00000024710695255117795880000000448500196541986463_);">
					
						<image style="overflow:visible;" width="800" height="800" xlink:href="1548087222778.png"  transform="matrix(8.015699e-02 -3.514126e-02 3.514126e-02 8.015699e-02 5.4582 35.7007)">
					</image>
				</g>
			</g>
		</g>
		<g id="outline_00000127725481618974668410000017609916204217635519_">
			<path class="st10" d="M49.4,19.1c9.3-0.2,18.1,4.6,23.5,13.5C81,46,77.1,62,63.6,70.2c-4.8,2.9-10.2,4.5-15.7,4.6
				c-9.5,0.2-18.7-4-23.9-12.7c-8.2-13.5-2.2-30.6,11.3-38.8C39.5,20.7,44.4,19.2,49.4,19.1 M49.3,14L49.3,14L49.3,14
				c-5.9,0.2-11.6,1.9-16.7,5c-16.4,9.9-22.2,30.4-13,45.7C25.5,74.4,36.1,80,48,79.8c6.4-0.1,12.7-2,18.2-5.3
				c7.5-4.4,12.9-11.5,15.1-19.9c2-8.4,0.5-17.3-4.1-24.6C71,19.7,60.7,13.8,49.3,14L49.3,14z"/>
		</g>
	</g>
	<path class="st11" d="M32.4,86.8L32.4,86.8c-1.5,0.9-3.4,0.4-4.3-1.1h0c-0.9-1.5-0.4-3.4,1.1-4.3h0c1.5-0.9,3.4-0.4,4.3,1.1l0,0
		C34.4,84,33.9,85.9,32.4,86.8z"/>
	<path class="st12" d="M94.5,124.7l-30.4,18.4c-4.7,2.8-10.7,1.6-14-2.7l-25-33.4c-5.1-6.9-3.7-16.6,3.1-21.7
		c0.4-0.3,0.8-0.6,1.3-0.9l29.8-18L94.5,124.7z"/>
	<path class="st11" d="M94.2,124.3L65,142c-4.5,2.7-10.3,1.6-13.5-2.7l-23.9-31.9c-5-6.7-3.6-16.3,3.1-21.3c0.4-0.3,0.8-0.6,1.2-0.8
		l28.4-17.2L94.2,124.3z"/>
	<path class="st11" d="M86.8,46.6L86.8,46.6c1.5-0.9,3.4-0.4,4.3,1.1l0,0c0.9,1.5,0.4,3.4-1.1,4.3l0,0c-1.5,0.9-3.4,0.4-4.3-1.1l0,0
		C84.8,49.4,85.3,47.5,86.8,46.6z"/>
	<path class="st12" d="M94.4,124.8l30.4-18.4c4.7-2.8,6.4-8.7,4.1-13.6l-18-37.7c-3.7-7.7-12.9-11-20.7-7.3
		c-0.5,0.2-0.9,0.5-1.3,0.7L59.1,66.5L94.4,124.8z"/>
	<path class="st11" d="M93.8,124.6l29.3-17.7c4.5-2.7,6.2-8.4,3.9-13.1l-17.2-36c-3.6-7.6-12.7-10.8-20.3-7.2
		c-0.5,0.2-0.9,0.5-1.3,0.7L59.8,68.5L93.8,124.6z"/>
	<path class="st6" d="M105.4,142.3l-0.7,0.4c-0.5,0.3-0.6,0.9-0.4,1.4c0,0,0.1,0.1,0.1,0.1c3.8,4.9,16.1,28.6,19.7,35.7
		c0.6,1.1,0.2,2.5-0.9,3.2l-17.4,10.5c-0.9,0.5-2.1,0.4-2.8-0.3c-2.5-2.3-8.4-7.6-15.7-15.2c-9.7-10.1-21.5-29.7-25.7-39.5
		c-4.2-9.9-4.2-9.9-6.3-19.3c-4.4,5.8-2.8,19.1-2.4,22.1c0.1,0.4,0.2,0.7,0.4,1c1.5,2,7.4,9.5,8.8,11.8c1.6,2.6,0.1,4.7-1,4.2
		c-2.8-1.6-5.4-3.3-8-5.1c-0.4-0.3-1-0.4-1.4-0.2c-1.8,0.7,1.1,3.2,1.1,3.2c1.8,1.3,3.7,2.6,5.8,3.6c1.1,0.5,1.8,1.4,2.1,2.6
		c0.2,0.8,0,1.7-0.6,2.3c-3.6,3.4-9.3,1.9-12.5,0.6c-1.6-0.6-3.1-1.8-4.1-3.2c-1.8-2.7-3-5.8-3.3-9c0.1-3.8-0.9-7.5-2.9-10.7
		c-14.6-26.8,2.3-51.2,3.8-55.7c8.9-3.4,14.9-10.9,21.8-15L62.7,72c6.8-4.2,15.4-6.5,22.6-12.9c4.7,0.8,35.1-2.3,52,23.1
		c1.9,3.3,4.7,5.9,8.1,7.5c2.7,1.8,5,4.2,6.5,7.1c0.8,1.5,1.2,3.3,1,5.1c-0.4,3.4-1.7,9.1-6.3,10.7c-0.8,0.3-1.7,0.1-2.4-0.5
		c-0.9-0.8-1.4-1.9-1.3-3.1c0-2.3-0.2-4.5-0.5-6.8c0,0-0.8-3.7-2.3-2.5c-0.4,0.3-0.6,0.9-0.5,1.4c0.4,3.5,2,8.8,0.7,9.5
		c-1.2,0.7-2.6,1.6-4.2-1c-1.4-2.3-5.3-11-6.3-13.3c-0.2-0.4-0.4-0.7-0.7-0.9c-2.4-1.7-13.5-9.4-20.7-8.2c7.3,6.2,7.3,6.2,14.1,14.6
		c6.8,8.3,18.6,27.8,23.1,41.1c3.3,9.9,5.3,17.7,6.2,20.9c0.3,1-0.2,2.1-1.1,2.6l-17.4,10.5c-1.1,0.7-2.5,0.4-3.2-0.7
		c-4.6-6.5-19.9-28.3-22.4-34c-0.2-0.5-0.8-0.7-1.3-0.5c0,0-0.1,0-0.1,0.1L105.4,142.3"/>
	<g>
		<defs>
			<path id="SVGID_00000183938112479594567530000014503236296140298119_" d="M105.4,142.3l-0.7,0.4c-0.5,0.3-0.6,0.9-0.4,1.4
				c0,0,0.1,0.1,0.1,0.1c3.8,4.9,16.1,28.6,19.7,35.7c0.6,1.1,0.2,2.5-0.9,3.2l-17.4,10.5c-0.9,0.5-2.1,0.4-2.8-0.3
				c-2.5-2.3-8.4-7.6-15.7-15.2c-9.7-10.1-21.5-29.7-25.7-39.5c-4.2-9.9-4.2-9.9-6.3-19.3c-4.4,5.8-2.8,19.1-2.4,22.1
				c0.1,0.4,0.2,0.7,0.4,1c1.5,2,7.4,9.5,8.8,11.8c1.6,2.6,0.1,4.7-1,4.2c-2.8-1.6-5.4-3.3-8-5.1c-0.4-0.3-1-0.4-1.4-0.2
				c-1.8,0.7,1.1,3.2,1.1,3.2c1.8,1.3,3.7,2.6,5.8,3.6c1.1,0.5,1.8,1.4,2.1,2.6c0.2,0.8,0,1.7-0.6,2.3c-3.6,3.4-9.3,1.9-12.5,0.6
				c-1.6-0.6-3.1-1.8-4.1-3.2c-1.8-2.7-3-5.8-3.3-9c0.1-3.8-0.9-7.5-2.9-10.7c-14.6-26.8,2.3-51.2,3.8-55.7
				c8.9-3.4,14.9-10.9,21.8-15L62.7,72c6.8-4.2,15.4-6.5,22.6-12.9c4.7,0.8,35.1-2.3,52,23.1c1.9,3.3,4.7,5.9,8.1,7.5
				c2.7,1.8,5,4.2,6.5,7.1c0.8,1.5,1.2,3.3,1,5.1c-0.4,3.4-1.7,9.1-6.3,10.7c-0.8,0.3-1.7,0.1-2.4-0.5c-0.9-0.8-1.4-1.9-1.3-3.1
				c0-2.3-0.2-4.5-0.5-6.8c0,0-0.8-3.7-2.3-2.5c-0.4,0.3-0.6,0.9-0.5,1.4c0.4,3.5,2,8.8,0.7,9.5c-1.2,0.7-2.6,1.6-4.2-1
				c-1.4-2.3-5.3-11-6.3-13.3c-0.2-0.4-0.4-0.7-0.7-0.9c-2.4-1.7-13.5-9.4-20.7-8.2c7.3,6.2,7.3,6.2,14.1,14.6
				c6.8,8.3,18.6,27.8,23.1,41.1c3.3,9.9,5.3,17.7,6.2,20.9c0.3,1-0.2,2.1-1.1,2.6l-17.4,10.5c-1.1,0.7-2.5,0.4-3.2-0.7
				c-4.6-6.5-19.9-28.3-22.4-34c-0.2-0.5-0.8-0.7-1.3-0.5c0,0-0.1,0-0.1,0.1L105.4,142.3"/>
		</defs>
		<clipPath id="SVGID_00000011023642014402192800000008411676140966946478_">
			<use xlink:href="#SVGID_00000183938112479594567530000014503236296140298119_"  style="overflow:visible;"/>
		</clipPath>
		<g style="clip-path:url(#SVGID_00000011023642014402192800000008411676140966946478_);">
			
				<rect x="104.3" y="61.5" transform="matrix(0.3779 -0.9259 0.9259 0.3779 10.2657 145.6629)" class="st14" width="18.4" height="7.4"/>
			<path class="st7" d="M85.3,59.1c0,0,33.6,5,48.1,19.4c11.8,16.1,10.1,9.7,11.9,11.8c1.8,2.1,9.1,4.5,4.7,19.1s12.5-8.9,12.5-8.9
				l-24.4-35.9l-50-10.4l-2.3,4L85.3,59.1z"/>
			
				<rect x="27.2" y="105.6" transform="matrix(5.357949e-02 -0.9986 0.9986 5.357949e-02 -85.5342 139.9075)" class="st14" width="7.7" height="19"/>
			
				<rect x="109" y="142.9" transform="matrix(0.7804 -0.6252 0.6252 0.7804 -62.053 112.4125)" class="st14" width="40" height="3.3"/>
			
				<rect x="74.6" y="163.6" transform="matrix(0.9164 -0.4003 0.4003 0.9164 -58.2498 51.6954)" class="st14" width="40" height="3.3"/>
			<path class="st15" d="M132.5,95.4c0,0-14.7-12.2-31.1-12.3c0,0,22.8,19.4,29.2,33.4c3.3,6.4,23.4,42.3,21.3,53.6
				C163.1,159.2,132.5,95.4,132.5,95.4z"/>
			<path class="st15" d="M69.5,154.4c0,0-14.2-34-13.9-44.7c-5.7,15-8.1,22.3-4.1,34.1c9.4,11.2,16.1,16.1,16.1,16.1L69.5,154.4z"/>
			<path class="st15" d="M104.6,142.9l-3.8,2.3c-0.5,0.3-0.7,1-0.4,1.5c0,0,0,0.1,0.1,0.1c3.1,4.3,15.8,21.8,24.3,38.5
				c0.3,0.5,0.9,0.8,1.5,0.5c0.2-0.1,0.3-0.2,0.4-0.3c1.2-1.5,1.7-3.4,1.6-5.4c0-0.2-0.1-0.3-0.2-0.5l-22-36.3
				C105.8,142.7,105.1,142.6,104.6,142.9z"/>
			<path class="st7" d="M40.6,95.1c-7.2,10.7-6.7,23-6.6,25.6c0.1,5.7,1,11.4,2.8,16.8c3.5,5.8,4.7,10.3,4.2,11.4
				c-0.4,1.1-5.9,6-5.9,6l-16.1-26.7l1.2-26l20.4-15.9L40.6,95.1z"/>
		</g>
	</g>
	
		<linearGradient id="SVGID_00000114033131414569351880000001957963332848832132_" gradientUnits="userSpaceOnUse" x1="-385.0779" y1="-353.1312" x2="-371.0979" y2="-353.1312" gradientTransform="matrix(0.8558 -0.5173 -0.5173 -0.8558 203.0781 -402.3051)">
		<stop  offset="0" style="stop-color:#9E23CC"/>
		<stop  offset="1" style="stop-color:#4619BF"/>
	</linearGradient>
	<circle style="fill:url(#SVGID_00000114033131414569351880000001957963332848832132_);" cx="62.2" cy="95.5" r="7"/>
	<g>
		<defs>
			<circle id="SVGID_00000045603980486705590090000011967840947379827630_" cx="62.2" cy="95.5" r="7"/>
		</defs>
		<clipPath id="SVGID_00000148642643650693429360000014578003946395411880_">
			<use xlink:href="#SVGID_00000045603980486705590090000011967840947379827630_"  style="overflow:visible;"/>
		</clipPath>
		<g style="clip-path:url(#SVGID_00000148642643650693429360000014578003946395411880_);">
			<path class="st18" d="M65.8,91L62.6,93l0.1-6.5L59,88.7l0.7,9.1l2.8-1.7l1.2,8.2L65.8,91z"/>
		</g>
	</g>
	<path class="st14" d="M65.2,90.9L62,92.8l0.1-6.5l-3.7,2.3l0.7,9.1l2.8-1.7l1.2,8.2L65.2,90.9z"/>
	<path class="st19" d="M106.3,114.5l-25.8,16c-2.8,1.8-6.5,0.9-8.3-1.9c0,0,0,0,0-0.1l-6.4-10.4c-1.8-2.8-0.9-6.5,1.9-8.3
		c0,0,0,0,0.1,0l25.9-16c2.8-1.8,6.5-0.9,8.3,1.9c0,0,0,0,0,0.1l6.4,10.4C110,109,109.2,112.7,106.3,114.5
		C106.3,114.5,106.3,114.5,106.3,114.5z"/>
	<path class="st11" d="M74.4,119.9l8.9-5.5c0.6-0.3,1.3-0.2,1.6,0.4l0,0c0.3,0.6,0.2,1.3-0.4,1.6l-8.9,5.5c-0.6,0.3-1.3,0.2-1.6-0.4
		l0,0C73.7,121,73.8,120.2,74.4,119.9z"/>
	<circle class="st14" cx="83.3" cy="115.7" r="0.9"/>
	<path class="st11" d="M76.1,122.7l8.9-5.5c0.6-0.3,1.3-0.2,1.6,0.4l0,0c0.3,0.6,0.2,1.3-0.4,1.6l-8.9,5.5c-0.6,0.3-1.3,0.2-1.6-0.4
		l0,0C75.4,123.8,75.6,123.1,76.1,122.7z"/>
	<circle class="st14" cx="78.6" cy="122.6" r="0.9"/>
	<path class="st11" d="M77.9,125.6l8.9-5.5c0.6-0.3,1.3-0.2,1.6,0.4l0,0c0.3,0.6,0.2,1.3-0.4,1.6l-8.9,5.5c-0.6,0.3-1.3,0.2-1.6-0.4
		l0,0C77.2,126.6,77.4,125.9,77.9,125.6z"/>
	<circle class="st14" cx="84.4" cy="122.9" r="0.9"/>
	
		<rect x="90.1" y="106.7" transform="matrix(0.8508 -0.5255 0.5255 0.8508 -41.8867 66.3039)" class="st11" width="11.4" height="0.5"/>
	
		<rect x="90.5" y="107.3" transform="matrix(0.8508 -0.5255 0.5255 0.8508 -42.1686 66.6213)" class="st11" width="11.4" height="0.5"/>
	<rect x="90.9" y="108" transform="matrix(0.8508 -0.5255 0.5255 0.8508 -42.461 66.939)" class="st11" width="11.4" height="0.5"/>
	
		<rect x="91.4" y="108.5" transform="matrix(0.8502 -0.5265 0.5265 0.8502 -42.7093 67.4071)" class="st11" width="11.4" height="0.5"/>
	
		<rect x="91.8" y="109.3" transform="matrix(0.8508 -0.5255 0.5255 0.8508 -43.0357 67.5665)" class="st11" width="11.4" height="0.5"/>
	
		<rect x="92.2" y="110" transform="matrix(0.8508 -0.5255 0.5255 0.8508 -43.3244 67.8802)" class="st11" width="11.4" height="0.5"/>
	
		<rect x="92.6" y="110.5" transform="matrix(0.8502 -0.5265 0.5265 0.8502 -43.5631 68.353)" class="st11" width="11.4" height="0.5"/>
	
		<rect x="93" y="111.2" transform="matrix(0.8502 -0.5265 0.5265 0.8502 -43.8579 68.6732)" class="st11" width="11.4" height="0.5"/>
	
		<rect x="93.4" y="111.8" transform="matrix(0.8502 -0.5265 0.5265 0.8502 -44.1465 68.9879)" class="st11" width="11.4" height="0.5"/>
	
		<rect x="93.8" y="112.5" transform="matrix(0.8502 -0.5265 0.5265 0.8502 -44.4299 69.3009)" class="st11" width="11.4" height="0.5"/>
	
		<rect x="94.2" y="113.3" transform="matrix(0.8508 -0.5255 0.5255 0.8508 -44.7621 69.4565)" class="st11" width="11.4" height="0.5"/>
	
		<rect x="94.6" y="114" transform="matrix(0.8508 -0.5255 0.5255 0.8508 -45.0497 69.765)" class="st11" width="11.4" height="0.5"/>
	
		<linearGradient id="SVGID_00000083073429790075594270000006102768132898693786_" gradientUnits="userSpaceOnUse" x1="-391.5159" y1="-377.9849" x2="-359.5459" y2="-377.9849" gradientTransform="matrix(0.8508 -0.5255 -0.5255 -0.8508 204.8757 -411.6924)">
		<stop  offset="0" style="stop-color:#9E23CC"/>
		<stop  offset="1" style="stop-color:#4619BF"/>
	</linearGradient>
	<path style="fill:url(#SVGID_00000083073429790075594270000006102768132898693786_);" d="M71.2,112L94,98c1.2-0.8,2.8-0.4,3.6,0.9
		l0,0c0.8,1.2,0.4,2.8-0.9,3.6l-22.7,14c-1.2,0.8-2.8,0.4-3.6-0.9l0,0C69.6,114.4,70,112.8,71.2,112z"/>
	<rect x="126.7" y="91.3" transform="matrix(0.8285 -0.56 0.56 0.8285 -28.6262 92.2067)" class="st19" width="19" height="3.2"/>
	
		<rect x="37.4" y="144.9" transform="matrix(0.8953 -0.4454 0.4454 0.8953 -60.3376 36.1894)" class="st19" width="19" height="3.2"/>
	
		<rect x="63" y="131.5" transform="matrix(0.8552 -0.5183 0.5183 0.8552 -55.2468 71.6686)" class="st19" width="75.3" height="6.3"/>
	<path class="st11" d="M94,133.8l8.5-5.2c0.6-0.4,1.4-0.2,1.8,0.4l3.1,5.1c0.4,0.6,0.2,1.4-0.4,1.8l-8.5,5.2
		c-0.6,0.4-1.4,0.2-1.8-0.4l-3.1-5.1C93.1,134.9,93.3,134.1,94,133.8z"/>
	<circle class="st21" cx="100.4" cy="134.8" r="2.9"/>
	<path class="st15" d="M132.7,179.6l10.8,16.2c2,2.5,5,4.1,8.2,4.3c1.5,0.1,2.9,0,4.3-0.3c2-0.4,3.8-1.2,5.6-2.2
		c9.1-5.4,17.5-10.4,8.3-17.7c-1.7-1.3-3.6-2.3-5.7-2.8c-0.9-0.2-1.7-0.4-2.5-0.6c-2.8-0.6-5.3-2.3-6.7-4.8l-2.2-3.7L132.7,179.6z"
		/>
	<g>
		<defs>
			<path id="SVGID_00000005975231433051011860000007472238046938391463_" d="M132.7,179.6l10.8,16.2c2,2.5,5,4.1,8.2,4.3
				c1.5,0.1,2.9,0,4.3-0.3c2-0.4,3.8-1.2,5.6-2.2c9.1-5.4,17.5-10.4,8.3-17.7c-1.7-1.3-3.6-2.3-5.7-2.8c-0.9-0.2-1.7-0.4-2.5-0.6
				c-2.8-0.6-5.3-2.3-6.7-4.8l-2.2-3.7L132.7,179.6z"/>
		</defs>
		<clipPath id="SVGID_00000123401493673486026900000001502271607451436442_">
			<use xlink:href="#SVGID_00000005975231433051011860000007472238046938391463_"  style="overflow:visible;"/>
		</clipPath>
		<g style="clip-path:url(#SVGID_00000123401493673486026900000001502271607451436442_);">
			<circle class="st23" cx="161.7" cy="175.6" r="5.6"/>
			<path class="st23" d="M134.7,198.5l6.4-6c2,2.5,5,4.1,8.2,4.3c1.5,0.1,2.9,0,4.3-0.3c2-0.4,3.8-1.2,5.6-2.2
				c9.1-5.4,17.5-10.4,8.3-17.7c-1.7-1.3-3.6-2.3-5.7-2.8c-0.9-0.2-1.7-0.4-2.5-0.6c-2.8-0.6,16.3,0.2,14.8-2.3l7.3,10.3l-3.7,9.6
				l-9.8,9.1l-11.1,5.1l-7,0.6l-6.4-1.9l-4.5-3.1L134.7,198.5z"/>
		</g>
	</g>
	<path class="st19" d="M152.7,168.6l-18.5,11.2c-1.2,0.7-2.7,0.3-3.4-0.8v0c-0.7-1.2-0.3-2.7,0.8-3.4l18.5-11.2
		c1.2-0.7,2.7-0.3,3.4,0.8v0C154.3,166.4,153.9,167.9,152.7,168.6z"/>
	
		<rect x="142.8" y="179.8" transform="matrix(0.8558 -0.5173 0.5173 0.8558 -74.9006 100.8144)" class="st24" width="1.1" height="9.9"/>
	
		<rect x="147.8" y="176.8" transform="matrix(0.8558 -0.5173 0.5173 0.8558 -72.6484 102.9409)" class="st24" width="1.1" height="9.9"/>
	
		<rect x="145.3" y="178.3" transform="matrix(0.8558 -0.5173 0.5173 0.8558 -73.7751 101.8803)" class="st24" width="1.1" height="9.9"/>
	<path class="st15" d="M125.9,183.7l9.3,17.1c1.3,2.9,1.3,6.3,0,9.2c-0.6,1.3-1.4,2.6-2.3,3.7c-1.3,1.5-2.8,2.9-4.6,3.9
		c-9,5.5-17.3,10.6-19.5-0.9c-0.4-2.1-0.3-4.3,0.2-6.3c0.2-0.9,0.4-1.7,0.7-2.5c0.8-2.8,0.4-5.7-1.2-8.1l-2.3-3.6L125.9,183.7z"/>
	<g>
		<defs>
			<path id="SVGID_00000034073978006849496440000002133243212183688844_" d="M125.9,183.7l9.3,17.1c1.3,2.9,1.3,6.3,0,9.2
				c-0.6,1.3-1.4,2.6-2.3,3.7c-1.3,1.5-2.8,2.9-4.6,3.9c-9,5.5-17.3,10.6-19.5-0.9c-0.4-2.1-0.3-4.3,0.2-6.3
				c0.2-0.9,0.4-1.7,0.7-2.5c0.8-2.8,0.4-5.7-1.2-8.1l-2.3-3.6L125.9,183.7z"/>
		</defs>
		<clipPath id="SVGID_00000111875989613798236320000008114576976896414892_">
			<use xlink:href="#SVGID_00000034073978006849496440000002133243212183688844_"  style="overflow:visible;"/>
		</clipPath>
		<g style="clip-path:url(#SVGID_00000111875989613798236320000008114576976896414892_);">
			<circle class="st23" cx="108.9" cy="207.5" r="5.6"/>
			<path class="st23" d="M141.7,194.2l-8.3,2.9c1.3,2.9,1.3,6.3,0,9.2c-0.6,1.3-1.4,2.6-2.3,3.7c-1.3,1.5-2.8,2.9-4.6,3.9
				c-9,5.5-17.3,10.6-19.5-0.9c-0.4-2.1-0.3-4.3,0.2-6.3c0.2-0.9,0.4-1.7,0.7-2.5c0.8-2.7-7.4,14.5-8.9,12.1l5.8,11.3l10.2,1.2
				l12.6-4.5l9.7-7.5l3.8-6l1.3-6.6l-0.6-5.4L141.7,194.2z"/>
		</g>
	</g>
	<path class="st19" d="M104.3,192l18.5-11.2c1.2-0.7,2.7-0.3,3.4,0.8l0,0c0.7,1.2,0.3,2.7-0.8,3.4l-18.5,11.2
		c-1.2,0.7-2.7,0.3-3.4-0.8l0,0C102.8,194.3,103.1,192.8,104.3,192z"/>
	
		<rect x="125" y="190.6" transform="matrix(0.8558 -0.5173 0.5173 0.8558 -83.0562 93.1432)" class="st24" width="1.1" height="9.9"/>
	
		<rect x="120.1" y="193.6" transform="matrix(0.8558 -0.5173 0.5173 0.8558 -85.3059 91.0211)" class="st24" width="1.1" height="9.9"/>
	
		<rect x="122.1" y="191.1" transform="matrix(0.8573 -0.5148 0.5148 0.8573 -83.4532 91.1524)" class="st24" width="1.1" height="10"/>
	<path class="st0" d="M42.4,80.8l37.8-22.9c3.6-2.2,8.3-1.1,10.6,2.6c0,0,0,0,0,0l0.9,1.5l0,0l-51,30.8l0,0l-0.9-1.5
		C37.6,87.7,38.8,83,42.4,80.8L42.4,80.8z"/>
	<circle class="st11" cx="42.5" cy="85" r="2.3"/>
	<path class="st10" d="M38.2,81.7l44.7-27c1.7-1,3.9-0.5,5,1.2l3,5l0,0L40,91.7l0,0l-3-5C36,85,36.5,82.8,38.2,81.7z"/>
	<circle class="st11" cx="49.4" cy="80.8" r="2.3"/>
	<circle class="st11" cx="56.2" cy="76.7" r="2.3"/>
	<circle class="st11" cx="63.1" cy="72.5" r="2.3"/>
	<circle class="st11" cx="70" cy="68.3" r="2.3"/>
	<circle class="st11" cx="76.9" cy="64.2" r="2.3"/>
	<circle class="st11" cx="83.8" cy="60" r="2.3"/>
</g>
</svg>
