<svg width="106" height="106" viewBox="0 0 106 106" fill="none" xmlns="http://www.w3.org/2000/svg">
<rect x="0.5" y="0.5" width="105" height="105" rx="52.5" fill="url(#paint0_linear_241_1662)"/>
<path d="M67.4086 40.188C63.4486 36.8524 57.559 37.4524 53.9241 41.1595L52.5005 42.6094L51.0769 41.1595C47.4493 37.4524 41.5525 36.8524 37.5924 40.188C33.0542 44.0165 32.8158 50.8878 36.877 55.0378L50.8601 69.3089C51.7634 70.2304 53.2304 70.2304 54.1337 69.3089L68.1168 55.0378C72.1853 50.8878 71.9468 44.0165 67.4086 40.188Z" fill="white"/>
<path d="M58.5169 52.8055L54.246 62.5675C53.7304 63.7558 52.2352 63.7165 51.7626 62.5086L46.873 50.1048L44.295 57.1464H36.2088L51.8915 75.4623C52.5016 76.1792 53.4898 76.1792 54.0999 75.4623L69.7912 57.1464H60.416L58.5169 52.8055ZM71.7075 36.1199L71.5013 35.8743C67.0757 30.7086 59.8316 30.7086 55.3975 35.8743L53 38.6831L50.6025 35.8842C46.177 30.7086 38.9243 30.7086 34.4987 35.8842L34.2925 36.1199C30.1076 41.0107 29.9271 48.7986 33.6652 54.0037H42.4647L45.5497 45.5381C46.0137 44.2712 47.5777 44.2417 48.0761 45.4988L53.0773 58.1972L57.288 48.5826C57.795 47.4237 59.2387 47.4237 59.7457 48.5826L62.1174 54.0037H72.3348C76.0729 48.7986 75.8924 41.0107 71.7075 36.1199Z" fill="#140735"/>
<rect x="0.5" y="0.5" width="105" height="105" rx="52.5" stroke="white"/>
<defs>
<linearGradient id="paint0_linear_241_1662" x1="53.0941" y1="-22.1966" x2="-14.1938" y2="106.145" gradientUnits="userSpaceOnUse">
<stop stop-color="#FDAE8F"/>
<stop offset="1" stop-color="#FD1C68"/>
</linearGradient>
</defs>
</svg>
