<svg width="32" height="32" viewBox="0 0 32 32" fill="none" xmlns="http://www.w3.org/2000/svg">
<path d="M19.7615 15.2942L16.8496 21.0626C16.498 21.7648 15.4785 21.7416 15.1563 21.0278L11.8225 13.6983L10.0648 17.8592H4.55145L15.2442 28.6823C15.6602 29.1059 16.334 29.1059 16.75 28.6823L27.4486 17.8592H21.0563L19.7615 15.2942ZM28.7551 5.43446L28.6145 5.28938C25.5971 2.23687 20.6579 2.23687 17.6347 5.28938L16 6.94911L14.3653 5.29518C11.3479 2.23687 6.4029 2.23687 3.3855 5.29518L3.24488 5.43446C0.391531 8.32448 0.268492 12.9265 2.81717 16.0022H8.81682L10.9202 10.9998C11.2366 10.2512 12.3029 10.2337 12.6428 10.9766L16.0527 18.4802L18.9237 12.7988C19.2693 12.114 20.2537 12.114 20.5993 12.7988L22.2164 16.0022H29.1828C31.7315 12.9265 31.6085 8.32448 28.7551 5.43446Z" fill="white"/>
</svg>
