<svg width="679" height="161" viewBox="0 0 679 161" fill="none" xmlns="http://www.w3.org/2000/svg">
<g id="Logo">
<g id="CITY PULSE">
<path d="M69.9609 71.6719L55.8984 85.8047C55.1953 83.8359 54.2344 82.0781 53.0156 80.5312C51.7969 78.9375 50.4141 77.6016 48.8672 76.5234C47.3672 75.4453 45.7266 74.625 43.9453 74.0625C42.1641 73.5 40.3359 73.2188 38.4609 73.2188C35.8359 73.2188 33.3516 73.7578 31.0078 74.8359C28.7109 75.9141 26.6953 77.4375 24.9609 79.4062C23.2734 81.3281 21.9375 83.625 20.9531 86.2969C19.9688 88.9688 19.4766 91.9219 19.4766 95.1562C19.4766 97.7812 19.9688 100.242 20.9531 102.539C21.9375 104.836 23.2734 106.852 24.9609 108.586C26.6953 110.32 28.7109 111.68 31.0078 112.664C33.3516 113.648 35.8359 114.141 38.4609 114.141C40.3359 114.141 42.1406 113.883 43.875 113.367C45.6094 112.852 47.2266 112.125 48.7266 111.188C50.2734 110.203 51.6328 109.031 52.8047 107.672C54.0234 106.266 55.0078 104.719 55.7578 103.031L69.8203 117.164C68.0391 119.695 65.9766 121.969 63.6328 123.984C61.3359 126 58.8281 127.711 56.1094 129.117C53.4375 130.523 50.6016 131.578 47.6016 132.281C44.6484 133.031 41.6016 133.406 38.4609 133.406C33.1641 133.406 28.1719 132.422 23.4844 130.453C18.8438 128.438 14.7656 125.695 11.25 122.227C7.78125 118.758 5.03906 114.703 3.02344 110.062C1.00781 105.422 0 100.453 0 95.1562C0 89.3906 1.00781 84 3.02344 78.9844C5.03906 73.9688 7.78125 69.6094 11.25 65.9062C14.7656 62.1562 18.8438 59.2031 23.4844 57.0469C28.1719 54.8906 33.1641 53.8125 38.4609 53.8125C41.6016 53.8125 44.6719 54.2109 47.6719 55.0078C50.7188 55.8047 53.6016 56.9766 56.3203 58.5234C59.0859 60.0234 61.6172 61.875 63.9141 64.0781C66.2578 66.2812 68.2734 68.8125 69.9609 71.6719Z" fill="#1F2528"/>
<path d="M102.023 36.2344C102.023 38.0156 101.672 39.6797 100.969 41.2266C100.312 42.7734 99.3984 44.1328 98.2266 45.3047C97.0547 46.4297 95.6719 47.3438 94.0781 48.0469C92.5312 48.7031 90.8672 49.0312 89.0859 49.0312C87.3047 49.0312 85.6172 48.7031 84.0234 48.0469C82.4766 47.3438 81.1172 46.4297 79.9453 45.3047C78.8203 44.1328 77.9062 42.7734 77.2031 41.2266C76.5469 39.6797 76.2188 38.0156 76.2188 36.2344C76.2188 34.5 76.5469 32.8594 77.2031 31.3125C77.9062 29.7188 78.8203 28.3594 79.9453 27.2344C81.1172 26.0625 82.4766 25.1484 84.0234 24.4922C85.6172 23.7891 87.3047 23.4375 89.0859 23.4375C90.8672 23.4375 92.5312 23.7891 94.0781 24.4922C95.6719 25.1484 97.0547 26.0625 98.2266 27.2344C99.3984 28.3594 100.312 29.7188 100.969 31.3125C101.672 32.8594 102.023 34.5 102.023 36.2344ZM98.7188 132H79.3828V56.6953H98.7188V132Z" fill="#1F2528"/>
<path d="M151.172 132C146.531 132 142.172 131.133 138.094 129.398C134.016 127.617 130.43 125.203 127.336 122.156C124.289 119.062 121.875 115.477 120.094 111.398C118.359 107.32 117.492 102.961 117.492 98.3203V75.9609H108.141V56.8359H117.492V26.7422H136.617V56.8359H165.727V75.9609H136.617V98.3203C136.617 100.336 136.992 102.234 137.742 104.016C138.492 105.75 139.523 107.273 140.836 108.586C142.148 109.898 143.695 110.953 145.477 111.75C147.258 112.5 149.156 112.875 151.172 112.875H165.727V132H151.172Z" fill="#1F2528"/>
<path d="M194.695 160.688V141.352L205.383 141.492C207.258 141.492 209.062 141.188 210.797 140.578C212.531 139.969 214.125 139.125 215.578 138.047C217.078 136.969 218.391 135.68 219.516 134.18C220.641 132.727 221.555 131.133 222.258 129.398C220.148 130.289 217.992 131.18 215.789 132.07C213.633 132.961 211.453 133.406 209.25 133.406C204.609 133.406 200.25 132.586 196.172 130.945C192.094 129.305 188.508 126.984 185.414 123.984C182.367 120.938 179.953 117.258 178.172 112.945C176.438 108.586 175.57 103.711 175.57 98.3203V56.6953H194.695V98.3203C194.695 100.992 195.07 103.336 195.82 105.352C196.617 107.32 197.672 108.984 198.984 110.344C200.297 111.656 201.82 112.641 203.555 113.297C205.336 113.953 207.234 114.281 209.25 114.281C211.219 114.281 213.07 113.836 214.805 112.945C216.586 112.008 218.133 110.789 219.445 109.289C220.758 107.789 221.789 106.102 222.539 104.227C223.289 102.305 223.664 100.336 223.664 98.3203V56.6953H243V122.508C242.953 127.805 241.922 132.773 239.906 137.414C237.891 142.055 235.125 146.109 231.609 149.578C228.141 153.047 224.086 155.789 219.445 157.805C214.805 159.82 209.836 160.828 204.539 160.828L194.695 160.688Z" fill="#1F2528"/>
<path d="M317.391 160.688H298.055V56.6953H302.695L310.359 65.7656C312.094 64.125 313.992 62.5781 316.055 61.125C318.117 59.6719 320.25 58.4297 322.453 57.3984C324.703 56.3203 327.023 55.4766 329.414 54.8672C331.805 54.2578 334.219 53.9531 336.656 53.9531C341.953 53.9531 346.922 54.9141 351.562 56.8359C356.25 58.7109 360.328 61.3828 363.797 64.8516C367.312 68.3203 370.078 72.5156 372.094 77.4375C374.109 82.3125 375.117 87.7266 375.117 93.6797C375.117 99.8672 374.109 105.445 372.094 110.414C370.078 115.336 367.312 119.531 363.797 123C360.328 126.422 356.25 129.047 351.562 130.875C346.922 132.703 341.953 133.617 336.656 133.617C334.969 133.617 333.281 133.43 331.594 133.055C329.953 132.68 328.312 132.188 326.672 131.578C325.078 130.922 323.484 130.195 321.891 129.398C320.344 128.602 318.844 127.781 317.391 126.938V160.688ZM355.852 93.6797C355.852 90.4922 355.336 87.6328 354.305 85.1016C353.32 82.5703 351.961 80.4375 350.227 78.7031C348.492 76.9219 346.453 75.5625 344.109 74.625C341.766 73.6875 339.281 73.2188 336.656 73.2188C334.031 73.2188 331.547 73.6875 329.203 74.625C326.906 75.5625 324.891 76.9219 323.156 78.7031C321.422 80.4375 320.039 82.5703 319.008 85.1016C318.023 87.6328 317.531 90.4922 317.531 93.6797C317.531 96.7266 318.023 99.5156 319.008 102.047C320.039 104.578 321.422 106.734 323.156 108.516C324.891 110.297 326.906 111.68 329.203 112.664C331.547 113.648 334.031 114.141 336.656 114.141C339.281 114.141 341.766 113.648 344.109 112.664C346.453 111.68 348.492 110.297 350.227 108.516C351.961 106.734 353.32 104.578 354.305 102.047C355.336 99.5156 355.852 96.7266 355.852 93.6797Z" fill="#1F2528"/>
<path d="M441.141 123.211C439.594 124.617 437.93 125.953 436.148 127.219C434.414 128.438 432.586 129.516 430.664 130.453C428.742 131.344 426.75 132.047 424.688 132.562C422.672 133.125 420.609 133.406 418.5 133.406C413.859 133.406 409.5 132.586 405.422 130.945C401.344 129.305 397.758 126.984 394.664 123.984C391.617 120.938 389.203 117.258 387.422 112.945C385.688 108.586 384.82 103.711 384.82 98.3203V56.6953H403.945V98.3203C403.945 100.852 404.32 103.125 405.07 105.141C405.867 107.109 406.922 108.773 408.234 110.133C409.547 111.492 411.07 112.523 412.805 113.227C414.586 113.93 416.484 114.281 418.5 114.281C420.469 114.281 422.32 113.836 424.055 112.945C425.836 112.008 427.383 110.789 428.695 109.289C430.008 107.789 431.039 106.102 431.789 104.227C432.539 102.305 432.914 100.336 432.914 98.3203V56.6953H452.109V132H447.469L441.141 123.211Z" fill="#1F2528"/>
<path d="M486.141 132H466.805V26.7422H486.141V132Z" fill="#1F2528"/>
<path d="M542.18 132H498.305V112.875H542.18C543.492 112.875 544.617 112.406 545.555 111.469C546.492 110.531 546.961 109.406 546.961 108.094C546.961 106.734 546.492 105.844 545.555 105.422C544.617 105 543.492 104.789 542.18 104.789H522.211C518.883 104.789 515.766 104.156 512.859 102.891C509.953 101.625 507.422 99.9141 505.266 97.7578C503.109 95.5547 501.398 93 500.133 90.0938C498.914 87.1875 498.305 84.0703 498.305 80.7422C498.305 77.4141 498.914 74.2969 500.133 71.3906C501.398 68.4844 503.109 65.9531 505.266 63.7969C507.422 61.6406 509.953 59.9531 512.859 58.7344C515.766 57.4688 518.883 56.8359 522.211 56.8359H561.094V75.9609H522.211C520.898 75.9609 519.773 76.4297 518.836 77.3672C517.898 78.3047 517.43 79.4297 517.43 80.7422C517.43 82.1016 517.898 83.2734 518.836 84.2578C519.773 85.1953 520.898 85.6641 522.211 85.6641H542.18C545.461 85.6641 548.555 86.2266 551.461 87.3516C554.367 88.4297 556.898 89.9531 559.055 91.9219C561.211 93.8906 562.922 96.2578 564.188 99.0234C565.453 101.789 566.086 104.812 566.086 108.094C566.086 111.422 565.453 114.539 564.188 117.445C562.922 120.305 561.211 122.836 559.055 125.039C556.898 127.195 554.367 128.906 551.461 130.172C548.555 131.391 545.461 132 542.18 132Z" fill="#1F2528"/>
<path d="M606.305 113.578C607.055 113.812 607.805 113.977 608.555 114.07C609.305 114.117 610.055 114.141 610.805 114.141C612.68 114.141 614.484 113.883 616.219 113.367C617.953 112.852 619.57 112.125 621.07 111.188C622.617 110.203 623.977 109.031 625.148 107.672C626.367 106.266 627.352 104.719 628.102 103.031L642.164 117.164C640.383 119.695 638.32 121.969 635.977 123.984C633.68 126 631.172 127.711 628.453 129.117C625.781 130.523 622.945 131.578 619.945 132.281C616.992 133.031 613.945 133.406 610.805 133.406C605.508 133.406 600.516 132.422 595.828 130.453C591.188 128.484 587.109 125.742 583.594 122.227C580.125 118.711 577.383 114.539 575.367 109.711C573.352 104.836 572.344 99.4922 572.344 93.6797C572.344 87.7266 573.352 82.2891 575.367 77.3672C577.383 72.4453 580.125 68.25 583.594 64.7812C587.109 61.3125 591.188 58.6172 595.828 56.6953C600.516 54.7734 605.508 53.8125 610.805 53.8125C613.945 53.8125 617.016 54.1875 620.016 54.9375C623.016 55.6875 625.852 56.7656 628.523 58.1719C631.242 59.5781 633.773 61.3125 636.117 63.375C638.461 65.3906 640.523 67.6641 642.305 70.1953L606.305 113.578ZM616.148 73.9922C615.258 73.6641 614.367 73.4531 613.477 73.3594C612.633 73.2656 611.742 73.2188 610.805 73.2188C608.18 73.2188 605.695 73.7109 603.352 74.6953C601.055 75.6328 599.039 76.9922 597.305 78.7734C595.617 80.5547 594.281 82.7109 593.297 85.2422C592.312 87.7266 591.82 90.5391 591.82 93.6797C591.82 94.3828 591.844 95.1797 591.891 96.0703C591.984 96.9609 592.102 97.875 592.242 98.8125C592.43 99.7031 592.641 100.57 592.875 101.414C593.109 102.258 593.414 103.008 593.789 103.664L616.148 73.9922Z" fill="#1F2528"/>
</g>
<path id="Vector" d="M652.917 28.844L646.22 42.3777C645.411 44.0251 643.066 43.9706 642.325 42.296L634.657 25.0998L630.615 34.862H617.934L642.527 60.2546C643.484 61.2485 645.034 61.2485 645.991 60.2546L670.597 34.862H655.895L652.917 28.844ZM673.602 5.71162L673.279 5.37124C666.339 -1.79041 654.979 -1.79041 648.025 5.37124L644.266 9.26522L640.506 5.38486C633.566 -1.79041 622.192 -1.79041 615.252 5.38486L614.929 5.71162C608.366 12.492 608.083 23.289 613.945 30.5051H627.744L632.582 18.7687C633.31 17.0123 635.762 16.9715 636.544 18.7142L644.387 36.3188L650.99 22.9895C651.785 21.3828 654.049 21.3828 654.844 22.9895L658.563 30.5051H674.586C680.448 23.289 680.165 12.492 673.602 5.71162Z" fill="black"/>
</g>
</svg>
